<?xml version="1.0" standalone="no"?>
<!DOCTYPE svg PUBLIC "-//W3C//DTD SVG 20010904//EN"
 "http://www.w3.org/TR/2001/REC-SVG-20010904/DTD/svg10.dtd">
<svg version="1.0" xmlns="http://www.w3.org/2000/svg"
 width="1920.000000pt" height="633.000000pt" viewBox="0 0 1920.000000 633.000000"
 preserveAspectRatio="xMidYMid meet">
<metadata>
Created by potrace 1.16, written by Peter Selinger 2001-2019
</metadata>
<g transform="translate(0.000000,633.000000) scale(0.100000,-0.100000)"
fill="#000000" stroke="none">
<path d="M1635 4828 c-37 -21 -1635 -1627 -1635 -1643 0 -10 378 -395 840
-857 462 -462 840 -836 840 -831 0 5 -6 18 -14 28 -10 14 -11 26 -5 43 7 19 5
28 -8 38 -10 8 -13 13 -6 14 7 0 10 7 6 17 -4 11 -3 14 5 9 8 -5 10 -2 6 8 -3
9 -1 16 5 16 6 0 11 5 11 11 0 5 -4 8 -9 5 -13 -8 -21 20 -9 32 6 6 6 12 -1
16 -8 5 -8 13 -1 27 9 15 7 21 -5 25 -8 3 -15 10 -15 16 0 5 4 7 9 4 10 -7 9
89 -1 99 -9 10 1 58 15 67 9 6 9 8 0 8 -8 0 -11 13 -8 40 2 23 -1 43 -8 47 -7
4 -4 9 7 13 17 6 17 7 2 23 -15 15 -16 17 -2 17 21 0 20 17 -1 29 -10 6 -13
11 -7 11 13 0 27 57 17 73 -12 19 -11 67 1 60 6 -3 2 4 -9 17 -11 13 -15 20
-8 17 6 -4 14 -3 18 3 3 5 0 10 -7 10 -10 0 -9 3 2 11 8 6 11 12 5 15 -14 6
-11 77 3 82 8 2 7 8 -3 18 -10 10 -12 22 -6 37 17 43 31 26 -326 387 l-293
295 378 379 c207 209 348 354 312 323 -36 -31 -68 -57 -72 -57 -3 0 -2 16 3
35 6 19 7 40 3 47 -13 20 -13 68 0 62 6 -3 2 2 -8 10 -17 14 -18 16 -3 16 9 0
17 5 17 10 0 6 -6 10 -12 10 -9 0 -8 4 2 10 8 5 11 10 5 10 -5 0 -10 19 -9 43
0 31 4 41 14 39 10 -3 9 3 -4 17 -12 13 -16 27 -11 38 11 27 16 73 7 73 -4 0
-7 31 -6 70 0 41 -4 70 -10 70 -5 0 -1 7 10 16 10 8 13 12 5 8 -10 -5 -11 -1
-7 14 4 11 2 23 -3 26 -6 4 -7 14 -4 22 3 9 0 19 -6 24 -9 5 -8 9 4 13 10 5
14 3 9 -5 -4 -7 -3 -8 5 -4 9 6 9 11 0 22 -6 8 -8 14 -3 14 5 0 2 5 -6 10 -9
6 -11 10 -3 10 7 0 10 7 6 16 -3 9 0 20 8 25 10 6 11 9 1 9 -11 0 -9 50 3 71
3 4 -1 9 -7 12 -10 3 -9 8 2 22 8 10 10 16 4 12 -7 -4 -14 0 -18 8 -3 8 0 15
5 15 7 0 9 11 7 25 -3 14 -1 25 3 25 11 0 12 27 1 34 -4 2 -16 0 -27 -6z"/>
<path d="M9080 3170 l0 -1040 105 0 105 0 0 480 0 480 370 0 370 0 0 95 0 95
-370 0 -370 0 0 370 0 370 430 0 430 0 0 95 0 95 -535 0 -535 0 0 -1040z"/>
<path d="M10845 3591 c-11 -5 -45 -16 -75 -26 -170 -54 -311 -210 -371 -410
-57 -188 -52 -452 11 -632 43 -122 139 -256 218 -304 20 -13 39 -26 42 -29 6
-7 59 -32 105 -50 66 -27 145 -39 240 -39 141 0 245 28 350 94 54 34 175 159
175 180 0 8 4 15 8 17 11 4 58 105 71 153 59 212 54 475 -12 657 -73 201 -214
332 -412 383 -61 16 -314 20 -350 6z m310 -166 c107 -38 179 -105 234 -220 57
-118 66 -167 65 -350 0 -137 -4 -171 -23 -235 -55 -180 -139 -276 -294 -339
-36 -14 -208 -14 -244 0 -178 72 -264 181 -308 392 -23 109 -20 299 6 404 21
87 64 177 109 230 77 91 207 145 335 139 39 -2 93 -11 120 -21z"/>
<path d="M11970 3586 l-45 -12 -3 -72 -3 -72 38 5 c53 7 103 -14 130 -54 l23
-34 0 -613 0 -614 100 0 100 0 0 559 0 559 48 40 c69 58 120 88 186 113 52 19
73 21 163 16 l103 -5 0 87 0 88 -39 11 c-59 18 -122 14 -198 -11 -83 -28 -134
-60 -205 -126 -59 -56 -68 -60 -68 -31 0 35 -41 110 -74 134 -62 46 -158 58
-256 32z"/>
<path d="M10509 1196 c-175 -32 -309 -155 -368 -337 -18 -57 -14 -217 7 -281
48 -146 150 -252 287 -297 69 -23 243 -29 304 -10 119 37 224 115 269 200 35
66 33 69 -57 69 -70 0 -80 -2 -86 -19 -9 -29 -79 -97 -117 -114 -91 -41 -151
-47 -232 -22 -115 35 -195 119 -222 233 -36 150 0 289 96 375 61 55 125 77
220 77 115 0 210 -53 256 -142 14 -27 17 -28 89 -28 88 0 92 7 50 83 -60 107
-182 189 -318 213 -85 15 -92 15 -178 0z"/>
<path d="M12342 718 l3 -473 125 -3 c206 -5 350 17 452 69 148 76 240 288 209
485 -29 181 -131 305 -296 362 -69 24 -146 32 -316 32 l-179 0 2 -472z m470
324 c116 -57 171 -150 176 -301 5 -107 -12 -176 -58 -240 -67 -92 -143 -123
-317 -129 l-123 -4 0 352 0 352 138 -4 c119 -3 143 -6 184 -26z"/>
<path d="M13410 725 l0 -465 255 0 255 0 0 55 0 55 -185 0 -185 0 0 150 0 150
165 0 165 0 0 60 0 60 -165 0 -165 0 0 140 0 140 185 0 185 0 0 60 0 60 -255
0 -255 0 0 -465z"/>
<path d="M15407 1184 c-5 -5 117 -253 143 -289 4 -5 40 -73 79 -150 l71 -141
0 -172 0 -172 75 0 75 0 0 168 0 168 34 64 c67 131 165 317 215 413 28 54 49
102 46 108 -4 5 -37 9 -75 9 l-68 0 -113 -227 -112 -228 -111 225 -111 225
-70 3 c-39 1 -74 0 -78 -4z"/>
<path d="M9425 1171 c-3 -6 -14 -36 -24 -68 -19 -59 -46 -132 -62 -168 -4 -11
-17 -47 -28 -80 -11 -33 -34 -98 -51 -145 -18 -47 -35 -96 -40 -110 -5 -14
-23 -63 -40 -110 -44 -118 -80 -222 -80 -232 0 -4 32 -8 70 -8 80 0 70 -11
116 123 l27 77 195 -2 195 -3 29 -80 c16 -44 31 -88 35 -97 4 -15 18 -18 79
-18 41 0 74 2 74 5 0 3 -4 13 -9 23 -6 9 -19 44 -30 77 -22 65 -80 229 -131
365 -17 47 -46 128 -65 180 -67 192 -90 255 -98 268 -10 14 -153 17 -162 3z
m165 -421 c28 -80 53 -151 55 -157 3 -10 -30 -13 -146 -13 -96 0 -148 4 -144
10 7 12 59 153 85 230 10 30 25 73 33 95 8 22 18 49 22 60 8 22 4 31 95 -225z"/>
<path d="M11585 1158 c-6 -21 -13 -42 -64 -180 -11 -29 -36 -100 -56 -158 -20
-58 -40 -114 -45 -125 -16 -38 -42 -110 -60 -165 -17 -51 -41 -119 -60 -165
-16 -39 -40 -105 -40 -110 0 -3 33 -5 73 -5 l73 0 14 38 c7 20 23 64 35 97
l22 60 195 3 196 2 16 -47 c8 -27 24 -70 34 -98 l18 -50 73 -3 c72 -3 73 -3
66 20 -11 38 -75 222 -85 243 -5 11 -16 40 -24 65 -8 25 -22 65 -31 90 -9 25
-26 70 -37 100 -11 30 -24 64 -28 75 -5 11 -20 54 -34 95 -14 41 -39 111 -55
155 l-28 80 -81 3 c-76 3 -81 2 -87 -20z m113 -223 c11 -33 35 -98 52 -145 31
-82 70 -199 70 -206 0 -2 -65 -4 -145 -4 -80 0 -145 2 -145 3 0 4 30 88 81
227 11 30 30 85 42 122 12 36 23 66 23 65 1 -1 11 -29 22 -62z"/>
<path d="M14210 715 l0 -465 75 0 75 0 0 307 c0 169 4 303 8 298 5 -6 21 -41
37 -80 16 -38 46 -108 68 -155 75 -165 89 -196 126 -280 l37 -85 52 -3 53 -3
35 78 c19 43 38 87 43 98 5 11 20 45 34 75 54 118 81 178 112 250 18 41 36 84
41 95 6 12 10 -98 12 -288 l2 -307 75 0 75 0 0 465 0 466 -76 -3 -77 -3 -37
-85 c-20 -47 -44 -101 -53 -120 -81 -178 -97 -213 -97 -216 0 -4 -11 -29 -72
-164 -19 -41 -41 -90 -49 -107 -7 -18 -16 -33 -19 -33 -3 0 -11 15 -19 33 -8
17 -27 59 -42 92 -15 33 -52 116 -82 185 -30 69 -67 152 -83 185 -15 33 -44
98 -64 145 l-36 85 -77 3 -77 3 0 -466z"/>
</g>
</svg>
